<svg width="10" height="12" viewBox="0 0 10 12" fill="none" xmlns="http://www.w3.org/2000/svg">
<g clip-path="url(#clip0_113_395)">
<path d="M8.48298 0.9341C7.93868 0.303027 6.95478 0.0324707 5.69607 0.0324707H2.04294C1.9184 0.0324754 1.79795 0.077671 1.70324 0.159932C1.60853 0.242193 1.54578 0.356123 1.52626 0.481239L0.00516797 10.2945C-0.0250664 10.488 0.122238 10.6632 0.315051 10.6632H2.57036L3.13677 7.00876L3.11919 7.1232C3.15954 6.86488 3.37673 6.67435 3.63392 6.67435H4.70564C6.81103 6.67435 8.45958 5.80447 8.94114 3.28809C8.95544 3.21366 8.96782 3.14123 8.97853 3.07046C8.91775 3.03772 8.91775 3.03772 8.97853 3.07046C9.12193 2.14038 8.97755 1.50728 8.48298 0.9341Z" fill="#27346A"/>
<path d="M3.99974 2.73541C4.0614 2.70555 4.12883 2.69007 4.19712 2.69011H7.06111C7.40025 2.69011 7.71657 2.71256 8.00564 2.75989C8.08652 2.77301 8.16699 2.78867 8.24693 2.80685C8.36022 2.83229 8.47221 2.86341 8.58247 2.90011C8.72458 2.94839 8.85693 3.00462 8.97857 3.07046C9.12193 2.14002 8.97755 1.50728 8.48298 0.9341C7.93837 0.303027 6.95478 0.0324707 5.69607 0.0324707H2.04263C1.7854 0.0324707 1.56657 0.222961 1.52626 0.481239L0.00516818 10.2941C-0.0250662 10.488 0.122238 10.663 0.314738 10.663H2.57036L3.74548 3.0827C3.75704 3.00819 3.78621 2.93765 3.8305 2.87716C3.87479 2.81666 3.93287 2.76802 3.99974 2.73541Z" fill="#27346A"/>
<path d="M8.94137 3.28794C8.4598 5.80397 6.81129 6.67421 4.70586 6.67421H3.63383C3.37664 6.67421 3.15941 6.86474 3.11945 7.12305L2.4148 11.667C2.38848 11.8363 2.51723 11.9898 2.68566 11.9898H4.58683C4.69574 11.9897 4.80106 11.9502 4.88386 11.8782C4.96666 11.8063 5.02149 11.7066 5.03851 11.5972L5.05703 11.4986L5.41535 9.1886L5.43844 9.06093C5.45545 8.95152 5.51029 8.85187 5.59308 8.77991C5.67587 8.70795 5.78118 8.66839 5.89008 8.66835H6.17461C8.01629 8.66835 9.45836 7.90727 9.87976 5.7061C10.0557 4.78623 9.96465 4.01823 9.49933 3.47879C9.3582 3.3154 9.18293 3.18046 8.97875 3.07031C8.96769 3.14144 8.9557 3.21352 8.94137 3.28794Z" fill="#2790C3"/>
<path d="M8.47467 2.86593C8.39958 2.84363 8.32378 2.82388 8.2474 2.80672C8.16743 2.78884 8.08696 2.77328 8.00611 2.76008C7.71674 2.71243 7.40064 2.68994 7.06119 2.68994H4.19756C4.12922 2.68978 4.06173 2.7054 4.00018 2.7356C3.93323 2.7681 3.87509 2.81672 3.83078 2.87723C3.78647 2.93774 3.75733 3.00833 3.74588 3.08288L3.13721 7.00863L3.11963 7.12307C3.15967 6.86475 3.37686 6.67422 3.63408 6.67422H4.70611C6.8115 6.67422 8.46002 5.80434 8.94158 3.28796C8.95592 3.21353 8.96795 3.14141 8.979 3.07033C8.85705 3.00484 8.72506 2.94826 8.58291 2.9003C8.54704 2.8882 8.51097 2.87675 8.47471 2.86593" fill="#1F264F"/>
</g>
<defs>
<clipPath id="clip0_113_395">
<rect width="10" height="12" fill="white"/>
</clipPath>
</defs>
</svg>
